<?xml version="1.0" standalone="no"?>
<!DOCTYPE svg PUBLIC "-//W3C//DTD SVG 20010904//EN"
 "http://www.w3.org/TR/2001/REC-SVG-20010904/DTD/svg10.dtd">
<svg version="1.0" xmlns="http://www.w3.org/2000/svg"
 width="1434.000000pt" height="1434.000000pt" viewBox="0 0 1434.000000 1434.000000"
 preserveAspectRatio="xMidYMid meet">
<g transform="translate(0.000000,1434.000000) scale(0.100000,-0.100000)"
fill="#1f2a30" stroke="none">
<path d="M10893 13957 c-49 -18 -108 -67 -138 -115 -55 -87 -42 -239 28 -319
46 -52 97 -74 175 -75 105 0 171 34 224 116 28 42 32 59 36 132 4 75 2 89 -22
137 -27 56 -83 104 -145 125 -43 15 -116 14 -158 -1z m143 -181 c38 -38 42
-62 19 -111 -18 -36 -51 -55 -96 -55 -36 0 -69 47 -69 100 0 19 9 50 20 68 28
46 79 45 126 -2z"/>
<path d="M6870 13903 c-331 -17 -698 -69 -968 -137 -256 -65 -397 -104 -477
-134 -127 -47 -405 -161 -460 -189 -27 -14 -102 -48 -165 -75 -136 -58 -285
-136 -430 -226 -58 -36 -151 -93 -208 -128 -210 -130 -549 -407 -746 -609
-274 -282 -414 -449 -599 -714 -233 -332 -346 -522 -497 -836 -140 -288 -211
-476 -306 -814 -79 -279 -112 -453 -156 -811 -30 -253 -33 -846 -5 -1065 67
-521 104 -681 253 -1115 3 -11 -14 -23 -64 -43 -84 -34 -218 -109 -370 -205
-336 -214 -539 -447 -625 -717 -18 -58 -22 -93 -21 -205 0 -121 3 -143 28
-215 44 -129 96 -203 210 -303 60 -53 217 -138 314 -171 174 -59 372 -86 571
-78 357 14 614 28 700 38 160 18 254 50 313 106 l27 26 34 -26 c38 -29 136
-118 287 -262 162 -155 429 -364 666 -523 314 -210 996 -548 1315 -652 356
-117 812 -198 1294 -230 381 -26 809 -10 1235 45 250 33 389 61 630 129 277
78 336 99 510 181 85 40 240 112 344 159 260 120 474 246 756 447 174 123 448
337 525 408 148 137 588 648 650 755 16 28 51 77 78 110 68 84 205 293 265
401 27 50 67 120 90 156 111 181 285 576 356 810 160 529 234 1088 223 1664
-6 295 -19 433 -68 731 -38 237 -84 419 -170 689 -136 422 -299 765 -562 1185
-368 587 -649 903 -1182 1330 -226 181 -392 293 -575 390 -74 40 -155 85 -180
100 -66 42 -322 164 -417 199 -45 16 -126 49 -180 72 -284 121 -675 222 -1228
318 -183 32 -719 50 -1015 34z m795 -173 c380 -35 872 -150 1283 -299 175 -64
255 -98 527 -224 200 -93 708 -401 803 -487 9 -9 87 -72 173 -142 172 -139
432 -379 553 -509 132 -142 413 -522 493 -668 20 -36 58 -100 83 -141 138
-223 351 -665 423 -881 48 -141 142 -465 166 -569 28 -123 78 -432 96 -597 31
-287 17 -837 -31 -1223 -42 -340 -183 -844 -334 -1191 -104 -239 -414 -757
-611 -1019 -207 -275 -563 -650 -841 -883 -86 -72 -314 -241 -393 -292 -161
-103 -469 -282 -540 -315 -124 -58 -305 -113 -330 -102 -19 9 -20 7 -20 -47
l0 -56 -90 -47 c-101 -52 -263 -101 -575 -172 -429 -98 -671 -121 -1275 -121
-436 1 -613 10 -940 51 -356 44 -594 101 -860 204 -71 28 -154 60 -182 71 -49
19 -93 58 -93 83 0 6 -51 28 -113 49 -252 86 -688 336 -962 553 -55 43 -134
105 -176 136 -276 209 -380 311 -772 757 -81 92 -286 372 -417 571 -150 226
-413 765 -492 1005 -79 243 -125 433 -159 665 -67 463 -75 574 -60 895 25 556
63 812 183 1235 106 376 176 558 333 865 280 549 749 1168 1155 1529 203 180
450 372 595 463 269 168 561 326 720 388 39 15 121 52 184 82 115 55 316 132
446 171 339 101 781 193 1016 211 154 12 907 13 1034 1z m-5476 -6853 c13 -28
49 -110 81 -182 153 -350 283 -573 503 -863 73 -96 142 -188 153 -205 12 -18
53 -66 91 -107 81 -90 123 -143 123 -158 0 -15 -145 -60 -229 -72 -132 -18
-376 -23 -448 -10 -85 16 -381 157 -472 226 -77 57 -180 185 -221 272 -38 78
-54 189 -45 297 10 113 29 176 75 252 38 63 51 113 31 113 -5 0 -18 -12 -30
-27 l-20 -28 9 40 c5 22 7 41 5 43 -1 2 -26 -25 -54 -60 -98 -120 -141 -245
-141 -413 0 -49 7 -115 15 -145 45 -171 212 -379 370 -462 46 -23 112 -45 190
-63 66 -15 130 -31 143 -36 13 -5 27 -7 32 -4 4 3 19 1 32 -4 22 -9 21 -10 -9
-10 -17 -1 -35 -6 -38 -11 -4 -7 3 -9 22 -5 23 4 24 4 7 -4 -31 -14 -188 -31
-284 -31 -125 0 -262 24 -407 71 -210 68 -289 112 -376 208 -109 121 -157 238
-157 384 0 149 50 298 140 418 83 111 300 318 410 391 104 69 431 238 460 238
8 0 26 -24 39 -53z"/>
<path d="M6785 13594 c-268 -16 -606 -72 -939 -154 -248 -62 -473 -143 -731
-265 -55 -26 -136 -63 -180 -82 -287 -124 -691 -373 -959 -591 -334 -273 -543
-495 -841 -892 -385 -515 -606 -920 -763 -1400 -128 -395 -166 -559 -221 -975
-51 -388 -50 -840 3 -1170 13 -82 27 -175 31 -205 16 -123 50 -259 131 -520
86 -276 176 -489 262 -624 18 -28 32 -62 32 -76 0 -14 16 -50 35 -80 29 -47
35 -51 35 -30 0 40 -18 91 -40 115 -20 21 -20 23 -3 61 15 33 18 65 16 219 -3
211 15 412 53 581 14 66 28 131 31 146 4 22 -11 49 -82 149 -47 66 -114 156
-149 199 -111 141 -183 292 -221 464 -13 61 -16 111 -13 215 4 121 8 146 36
224 56 157 80 184 139 152 53 -29 215 -191 248 -249 37 -64 73 -164 91 -251
19 -95 30 -527 16 -620 -20 -126 2 -98 93 117 107 254 221 468 316 594 32 42
61 86 65 96 3 11 -2 54 -12 96 -25 112 -23 294 4 395 57 211 202 390 392 487
105 53 428 173 470 174 l35 1 3 -130 c6 -253 -28 -458 -103 -610 -81 -167
-214 -298 -390 -385 -90 -44 -251 -99 -294 -100 -29 -1 -48 -24 -136 -170
-166 -276 -264 -491 -368 -815 -76 -235 -101 -382 -102 -605 0 -96 4 -197 9
-225 8 -47 9 -49 19 -25 6 14 45 99 87 190 43 91 89 203 105 250 53 160 146
310 266 427 110 107 299 198 483 234 56 11 123 24 149 29 70 14 104 12 111 -6
22 -56 -11 -191 -69 -288 -101 -168 -238 -319 -358 -397 -86 -56 -349 -185
-442 -218 -75 -26 -82 -30 -111 -79 -57 -94 -134 -306 -154 -421 -10 -61 -9
-87 5 -174 32 -191 61 -254 205 -453 76 -104 91 -119 139 -140 43 -19 71 -24
141 -24 124 0 455 65 640 125 41 14 197 56 345 94 347 89 653 179 780 229 55
22 163 61 240 87 77 26 170 64 207 85 37 21 104 55 150 76 46 20 128 58 183
84 55 26 111 51 125 55 29 8 116 41 255 97 133 53 554 261 583 288 17 16 22
33 23 73 1 58 -1 110 -6 115 -4 4 -203 -94 -440 -217 -205 -106 -430 -214
-590 -281 -49 -21 -112 -50 -140 -65 -205 -113 -219 -119 -470 -206 -60 -21
-171 -61 -245 -89 -223 -85 -387 -139 -540 -176 -283 -68 -317 -77 -490 -131
-288 -91 -452 -126 -628 -136 -97 -6 -100 6 -5 23 139 24 279 62 515 139 134
45 275 87 313 95 135 28 231 54 375 99 80 24 188 56 241 71 54 14 144 46 203
71 58 24 166 62 240 84 153 44 201 65 411 174 181 93 278 141 495 241 91 42
197 93 235 113 39 19 115 59 170 87 55 28 145 73 200 99 106 51 137 72 147 99
8 20 -25 285 -52 423 -45 222 -97 363 -193 520 -79 129 -106 160 -314 365
-356 351 -428 424 -1088 1100 -111 113 -272 284 -359 380 -88 96 -227 245
-310 330 -139 143 -326 344 -533 570 -137 151 -279 346 -308 424 -35 93 -42
177 -21 248 55 191 255 316 716 448 125 36 192 51 361 85 36 7 84 18 105 24
39 10 361 64 609 101 507 76 1626 131 2050 101 88 -6 257 -15 375 -21 559 -27
1096 -90 1535 -180 162 -33 550 -136 684 -180 419 -140 557 -302 487 -570 -51
-193 -182 -356 -762 -950 -88 -91 -228 -239 -309 -330 -220 -246 -378 -412
-705 -745 -114 -115 -258 -266 -321 -335 -62 -69 -216 -228 -340 -355 -125
-126 -254 -261 -288 -300 -83 -93 -254 -332 -304 -423 -35 -65 -103 -279 -92
-290 2 -3 44 20 92 51 48 30 111 66 138 80 118 61 261 159 362 248 122 109
333 279 438 354 38 27 146 124 240 215 94 91 296 284 449 430 153 146 281 270
285 277 3 7 51 59 106 115 109 112 213 223 260 278 17 19 68 80 115 135 47 55
131 150 187 213 131 145 230 269 327 407 42 61 104 148 137 195 174 244 539
872 539 927 0 57 -254 347 -539 616 -101 96 -354 310 -441 373 -84 62 -267
177 -445 281 -370 217 -843 419 -1220 523 -202 55 -600 139 -770 161 -77 10
-857 20 -980 13z m402 -406 c10 -18 27 -55 37 -81 21 -55 56 -82 120 -93 46
-7 96 -30 96 -43 0 -15 -43 -37 -115 -59 -79 -24 -95 -42 -130 -149 -9 -29
-20 -53 -25 -53 -19 0 -39 33 -51 83 -17 77 -35 95 -124 126 -123 42 -126 76
-6 100 33 6 64 17 69 24 6 7 29 49 52 95 23 45 45 82 50 82 4 0 17 -15 27 -32z
m780 -50 c52 -58 56 -101 12 -124 -38 -19 -74 -12 -93 19 -28 44 -28 63 0 96
31 37 53 39 81 9z m539 -112 c22 -22 34 -44 34 -61 0 -39 -37 -94 -68 -102
-21 -5 -31 0 -54 28 -31 37 -36 75 -13 119 14 27 40 49 59 50 4 0 23 -15 42
-34z m-2546 -33 c45 -50 42 -100 -8 -153 -22 -22 -46 -40 -55 -40 -9 0 -32 14
-51 31 -60 52 -58 130 5 183 36 31 70 24 109 -21z m3273 -173 c69 -61 70 -124
2 -176 -59 -44 -112 -28 -151 47 -21 42 -6 97 37 133 40 34 71 33 112 -4z
m636 -265 c31 -29 -18 -135 -62 -135 -27 0 -77 48 -77 75 0 27 27 64 54 75 25
10 66 3 85 -15z m-6545 -1537 c41 -37 43 -72 8 -108 -38 -38 -73 -39 -101 -4
-31 39 -27 77 10 108 37 32 51 32 83 4z m-14 -531 c32 -26 60 -71 60 -98 0
-37 -67 -109 -101 -109 -32 0 -41 8 -73 54 -37 55 -34 91 11 132 39 35 76 43
103 21z m-521 -873 c38 -32 41 -73 9 -121 -31 -44 -61 -43 -104 3 -48 50 -43
98 14 128 37 21 46 20 81 -10z m1933 -741 c58 -63 59 -93 2 -142 -47 -42 -75
-40 -113 8 -40 50 -42 98 -5 135 36 36 82 35 116 -1z m547 -110 c5 -10 16 -53
25 -95 19 -95 47 -153 84 -172 15 -8 53 -19 85 -25 66 -12 77 -17 77 -35 0
-23 -26 -37 -101 -56 -91 -24 -114 -46 -134 -130 -45 -189 -65 -188 -95 4 -6
38 -15 77 -21 87 -10 20 -83 44 -169 58 -66 11 -76 21 -50 53 16 21 35 29 92
39 101 18 114 32 144 159 14 58 27 111 29 118 6 17 23 15 34 -5z m-571 -1169
c232 -79 342 -198 378 -409 14 -79 14 -98 1 -177 -26 -154 -90 -259 -207 -338
-223 -151 -435 -171 -614 -56 -63 41 -164 147 -200 212 -66 117 -84 265 -50
397 23 90 80 195 134 247 140 135 374 187 558 124z m1187 -152 c34 -24 75 -86
75 -112 0 -32 -43 -90 -67 -90 -8 0 -33 17 -54 39 -51 50 -54 98 -10 142 31
30 39 34 56 21z m-2283 -819 c59 -64 60 -112 2 -163 -40 -35 -35 -34 -78 -16
-62 26 -83 85 -51 146 32 63 86 76 127 33z"/>
<path d="M4410 7467 c-65 -18 -110 -49 -173 -116 -157 -170 -148 -381 24 -554
93 -94 137 -112 265 -112 98 1 105 2 178 39 265 135 318 445 112 647 -80 79
-141 103 -261 106 -59 2 -119 -3 -145 -10z m181 -142 c24 -9 62 -31 84 -49 39
-33 40 -35 43 -109 5 -94 -8 -136 -58 -181 -104 -94 -254 -66 -315 59 -35 71
-31 133 11 202 52 84 135 112 235 78z"/>
<path d="M6500 12219 c-215 -15 -405 -30 -490 -39 -47 -5 -130 -14 -185 -20
-137 -15 -360 -46 -540 -76 -82 -14 -175 -29 -205 -34 -30 -5 -79 -14 -107
-20 -29 -5 -74 -14 -100 -19 -27 -6 -97 -19 -158 -31 -216 -40 -479 -121 -611
-188 -105 -53 -204 -156 -204 -212 0 -31 113 -139 185 -177 147 -76 415 -155
782 -229 207 -42 297 -46 438 -21 55 11 161 30 235 44 404 75 829 119 1375
144 284 13 421 8 755 -26 129 -13 271 -27 315 -30 104 -8 246 -28 420 -59 77
-14 273 -42 435 -62 288 -36 298 -37 425 -25 257 25 467 70 755 163 127 41
296 129 364 190 68 61 79 99 48 164 -56 115 -285 207 -817 327 -38 9 -110 26
-160 38 -331 78 -1039 160 -1675 194 -294 16 -1077 18 -1280 4z"/>
<path d="M11211 11520 c-12 -19 -51 -92 -86 -162 -61 -118 -255 -443 -348
-583 -112 -167 -365 -511 -439 -596 -175 -203 -213 -247 -288 -329 -43 -47
-104 -116 -136 -154 -166 -196 -642 -673 -884 -886 -52 -46 -138 -125 -190
-175 -216 -204 -416 -371 -595 -495 -60 -41 -138 -102 -174 -135 -36 -33 -84
-71 -106 -85 -22 -13 -87 -58 -145 -100 -58 -41 -118 -84 -135 -94 -16 -11
-71 -50 -122 -87 -69 -52 -94 -77 -101 -101 -14 -45 -24 -168 -15 -168 13 0
113 43 183 79 72 37 130 79 268 194 51 42 139 108 195 145 56 38 147 101 202
140 55 40 136 98 180 130 44 31 121 95 170 141 50 46 137 122 195 169 101 81
235 199 459 404 151 137 753 738 901 898 109 118 189 211 365 425 37 45 324
420 386 505 176 241 429 663 429 716 0 23 -73 152 -114 199 l-34 40 -21 -35z"/>
<path d="M3883 11319 c8 -11 95 -105 194 -207 98 -103 210 -221 248 -262 38
-41 139 -149 224 -240 220 -233 370 -396 491 -535 58 -66 265 -282 460 -480
195 -199 421 -428 501 -511 81 -82 258 -256 395 -386 286 -272 326 -319 427
-508 106 -198 159 -393 196 -725 6 -49 16 -142 23 -205 10 -85 13 -360 13
-1070 l0 -955 -23 -115 c-48 -242 -77 -334 -142 -457 -111 -213 -172 -277
-385 -403 -55 -33 -111 -69 -125 -80 l-25 -20 105 6 c125 7 255 28 320 53 105
40 155 102 249 308 49 106 64 155 91 283 18 85 37 164 43 175 10 18 12 16 23
-21 7 -23 19 -98 28 -167 9 -70 27 -175 41 -235 50 -221 85 -300 158 -351 131
-94 128 -97 -128 -112 -258 -15 -712 -15 -845 0 -98 11 -137 10 -264 -3 -208
-22 -193 -24 -187 26 5 33 11 44 26 46 112 18 399 149 526 240 119 85 239 192
215 192 -2 0 -61 -28 -132 -61 -143 -68 -336 -134 -489 -169 -55 -12 -151 -35
-212 -51 -62 -16 -166 -43 -230 -59 -119 -31 -224 -75 -231 -97 -5 -16 38 -37
187 -90 179 -64 432 -110 816 -149 202 -21 1095 -31 1338 -15 300 19 674 93
992 195 109 35 125 52 79 82 -31 21 -327 104 -599 169 -363 86 -646 201 -763
309 -109 100 -184 337 -213 666 -14 172 -14 1815 1 2050 23 352 120 709 228
840 21 25 60 77 87 115 27 39 133 154 235 256 102 102 259 262 350 355 91 93
255 261 365 374 110 113 260 270 334 350 74 80 160 172 190 205 31 33 74 80
95 105 99 113 616 668 686 735 29 28 125 129 215 225 90 96 208 222 264 280
56 58 101 108 101 112 0 4 -55 -22 -122 -57 -128 -66 -175 -85 -318 -128 -260
-79 -574 -144 -806 -166 -105 -11 -141 -8 -554 40 -200 23 -210 23 -715 -15
-104 -8 -313 -20 -463 -27 -150 -7 -267 -16 -260 -21 7 -4 44 -8 82 -8 83 0
83 -8 0 -14 -120 -8 -205 -19 -210 -27 -2 -4 -12 -5 -20 -2 -19 7 -123 -16
-143 -31 -11 -8 -13 -8 -7 2 5 9 -8 12 -54 12 -42 0 -59 -3 -54 -11 5 -8 -6
-9 -37 -4 -55 9 -55 10 -33 32 17 17 17 18 -7 21 -54 8 -41 22 22 22 93 0 105
16 19 24 -359 33 -1244 61 -1211 38 19 -14 5 -19 -82 -31 -202 -28 -358 -12
-822 84 -313 66 -346 77 -624 204 -84 39 -155 71 -158 71 -2 0 2 -9 10 -21z
m5372 -419 c100 -12 195 -48 195 -75 0 -34 -305 -152 -558 -215 -334 -83 -720
-114 -1752 -140 -580 -14 -983 11 -1410 86 -434 77 -587 118 -725 194 -75 42
-144 94 -134 104 3 3 34 13 70 23 54 15 99 18 285 16 122 -2 285 -9 362 -17
76 -8 218 -20 313 -25 96 -6 300 -19 454 -28 360 -23 888 -23 1280 0 160 10
373 22 475 27 102 5 268 17 370 25 436 37 618 43 775 25z m-4246 -335 c95 -41
212 -87 260 -101 104 -30 737 -139 929 -159 242 -26 1252 -17 1687 15 265 20
658 59 810 81 213 31 628 145 777 213 68 31 68 31 68 7 0 -15 -53 -84 -100
-131 -3 -3 -36 -39 -75 -80 -38 -41 -121 -129 -184 -195 -63 -66 -160 -167
-215 -225 -56 -58 -132 -139 -171 -180 -38 -41 -146 -154 -240 -250 -93 -96
-258 -270 -365 -385 -453 -488 -553 -566 -810 -629 -147 -36 -209 -40 -325
-22 -162 25 -272 71 -406 172 -110 82 -1270 1258 -1514 1535 -246 279 -366
438 -312 416 6 -3 90 -40 186 -82z m2371 -2286 c0 -6 -15 -38 -34 -72 -56
-102 -126 -290 -143 -386 -9 -50 -20 -91 -24 -91 -10 0 -33 67 -64 185 -31
121 -65 209 -112 293 -19 35 -32 66 -29 69 3 3 38 -9 78 -27 96 -44 134 -44
228 2 80 39 100 44 100 27z m469 -3974 c37 -19 73 -35 80 -35 36 0 210 -66
243 -93 45 -36 37 -47 -38 -47 -81 0 -264 98 -343 184 -32 34 -25 33 58 -9z"/>
<path d="M5220 10342 c0 -6 5 -14 10 -17 6 -3 35 -38 66 -76 115 -144 283
-249 584 -363 450 -171 673 -226 911 -226 90 0 171 22 152 41 -5 5 -129 39
-274 75 -321 79 -302 73 -633 201 -332 129 -380 151 -535 252 -112 73 -157 94
-253 117 -17 4 -28 2 -28 -4z"/>
<path d="M8628 10088 c-8 -7 -55 -60 -103 -118 -156 -187 -359 -401 -564 -595
-111 -104 -201 -196 -201 -203 0 -18 50 -34 88 -28 18 2 65 26 104 52 92 61
345 299 468 440 52 60 129 145 171 189 86 90 129 149 129 177 0 10 -7 33 -16
51 -25 48 -47 58 -76 35z"/>
<path d="M5918 9653 c19 -34 116 -136 327 -343 340 -332 446 -424 550 -475
121 -61 226 -87 347 -89 94 -1 97 0 127 28 17 17 31 35 31 41 0 7 -32 17 -77
24 -123 20 -203 41 -279 76 -134 61 -325 206 -574 435 -202 186 -339 284 -438
315 -21 6 -23 5 -14 -12z"/>
<path d="M11423 11188 c-26 -29 -154 -223 -264 -398 -72 -116 -204 -299 -301
-420 -16 -19 -70 -89 -121 -155 -147 -192 -286 -362 -393 -480 -134 -148 -289
-314 -327 -349 -18 -16 -160 -155 -317 -310 -157 -155 -348 -337 -425 -405
-77 -69 -180 -162 -230 -208 -168 -156 -432 -370 -610 -494 -33 -23 -129 -94
-213 -158 -85 -64 -182 -135 -215 -158 -125 -86 -179 -127 -230 -173 -56 -51
-192 -142 -274 -184 -57 -29 -63 -40 -63 -138 0 -77 1 -78 76 -52 128 43 448
273 427 306 -4 7 0 9 10 5 11 -4 20 1 27 13 13 24 87 75 162 112 110 53 300
181 393 264 50 44 166 129 240 174 143 87 306 219 485 393 102 99 259 243 350
322 132 113 482 455 655 640 136 145 352 383 401 440 32 39 106 124 164 191
130 149 251 304 321 409 29 44 98 145 154 225 91 131 167 250 224 353 12 21
21 49 21 63 0 28 -47 122 -84 167 l-22 27 -21 -22z"/>
<path d="M11532 10809 c-39 -57 -88 -128 -109 -157 -21 -28 -78 -109 -127
-180 -144 -205 -214 -299 -323 -434 -499 -618 -961 -1102 -1368 -1433 -88 -71
-230 -199 -315 -285 -155 -155 -222 -208 -588 -465 -62 -44 -152 -110 -199
-147 -48 -37 -143 -97 -212 -134 -195 -105 -249 -140 -347 -229 -50 -45 -127
-107 -170 -136 -126 -85 -305 -199 -314 -199 -4 0 -11 -7 -14 -16 -10 -25 -7
-184 3 -184 5 0 25 9 43 21 140 87 202 129 263 178 89 71 149 112 205 141 154
78 622 376 795 506 44 34 112 81 150 107 39 25 176 125 305 222 428 320 771
634 1373 1255 213 220 474 522 579 670 25 36 108 144 183 240 126 162 248 336
339 485 34 57 36 63 24 95 -11 34 -63 127 -91 164 -13 18 -19 13 -85 -85z"/>
<path d="M11678 10494 c-40 -58 -109 -152 -153 -209 -44 -56 -107 -138 -140
-183 -359 -486 -586 -753 -970 -1136 -502 -500 -896 -849 -1231 -1086 -11 -8
-117 -80 -234 -158 -117 -79 -248 -170 -289 -201 -127 -96 -243 -170 -529
-336 -150 -88 -312 -190 -360 -227 -82 -64 -203 -155 -296 -224 -40 -29 -41
-31 -41 -90 l0 -59 30 3 c42 4 291 129 410 206 55 36 165 104 245 152 80 48
207 126 282 173 76 47 152 95 170 105 76 45 433 286 548 371 69 50 181 132
250 180 69 49 170 123 225 165 55 42 122 91 149 109 74 51 178 144 451 402
466 441 738 728 1100 1160 110 131 160 194 336 427 31 41 83 122 115 180 33
58 69 123 81 145 21 38 21 39 3 92 -17 49 -67 145 -75 145 -2 0 -37 -48 -77
-106z"/>
<path d="M11800 10174 c-36 -58 -91 -142 -122 -185 -78 -106 -507 -631 -548
-669 -3 -3 -46 -52 -95 -110 -274 -320 -905 -932 -1179 -1144 -274 -211 -322
-247 -431 -321 -55 -37 -156 -112 -225 -165 -156 -121 -315 -227 -540 -360
-96 -57 -229 -140 -295 -184 -132 -89 -198 -130 -295 -183 -36 -20 -110 -64
-165 -98 -55 -35 -156 -91 -224 -125 -69 -34 -153 -80 -188 -102 l-64 -40 3
-82 c3 -72 5 -81 23 -84 21 -3 293 128 455 218 52 29 104 58 115 64 11 6 63
36 115 67 52 30 141 81 197 112 98 54 205 122 373 237 41 28 125 79 185 112
292 164 903 598 1175 834 14 12 94 79 179 150 84 70 291 262 459 428 597 589
966 1007 1132 1282 36 59 80 123 98 141 l34 34 -23 87 c-21 81 -66 192 -79
192 -3 -1 -34 -48 -70 -106z"/>
<path d="M11964 9892 c-12 -9 -55 -69 -97 -133 -202 -313 -408 -549 -1010
-1152 -411 -412 -481 -478 -657 -622 -47 -38 -90 -74 -96 -80 -6 -5 -50 -39
-98 -75 -135 -101 -280 -211 -409 -312 -65 -51 -178 -131 -252 -178 -73 -47
-178 -115 -232 -151 -55 -37 -115 -75 -134 -84 -52 -27 -159 -92 -327 -201
-258 -167 -279 -180 -594 -358 -141 -79 -466 -239 -551 -270 -26 -10 -52 -26
-57 -36 -10 -19 -14 -202 -5 -212 12 -11 1044 517 1155 592 14 9 55 33 92 53
92 50 498 302 633 393 711 481 1197 861 1625 1269 155 149 600 607 651 670
203 256 423 547 449 596 8 15 10 44 7 83 -7 65 -53 226 -65 226 -4 0 -17 -8
-28 -18z"/>
<path d="M3890 9676 c-190 -80 -240 -108 -322 -185 -57 -53 -86 -90 -116 -148
-89 -172 -113 -393 -55 -511 17 -34 21 -37 58 -35 103 7 348 169 433 286 92
129 133 273 140 490 2 86 0 157 -4 156 -5 0 -65 -24 -134 -53z"/>
<path d="M12028 9463 c-24 -32 -65 -87 -90 -123 -54 -77 -237 -308 -317 -400
-173 -199 -536 -566 -762 -770 -225 -204 -743 -627 -976 -800 -296 -218 -1169
-776 -1453 -928 -284 -152 -466 -245 -635 -327 -372 -179 -344 -163 -350 -198
-11 -63 14 -728 30 -802 53 -246 122 -342 315 -440 84 -42 335 -126 512 -171
149 -37 550 -159 663 -200 39 -15 99 -42 134 -61 36 -19 59 -28 53 -20 -20 23
-4 44 51 67 70 30 413 201 463 231 22 13 49 29 59 36 174 103 240 143 290 176
92 61 270 197 370 282 112 96 412 374 444 412 14 15 47 53 75 83 57 62 312
378 368 455 171 237 397 624 483 825 120 279 190 491 274 825 55 222 68 295
98 570 45 413 36 999 -20 1269 -7 33 -17 61 -24 63 -6 2 -31 -22 -55 -54z
m-328 -1351 c43 -42 49 -65 25 -99 -18 -26 -76 -63 -98 -63 -24 0 -87 70 -87
97 0 32 66 103 96 103 13 0 40 -16 64 -38z m-646 -219 c2 -10 7 -61 11 -113
11 -169 39 -243 119 -323 44 -45 104 -64 241 -77 144 -14 185 -25 185 -50 0
-10 -5 -22 -10 -25 -6 -4 -71 -15 -146 -25 -172 -25 -206 -35 -258 -81 -91
-81 -119 -149 -139 -344 -10 -89 -15 -110 -29 -113 -28 -5 -45 46 -57 176 -6
68 -17 138 -25 155 -18 43 -142 161 -192 182 -21 9 -88 25 -149 36 -135 24
-135 24 -135 48 0 32 35 43 177 57 73 7 145 20 161 28 40 21 101 91 124 143
11 24 24 88 30 141 5 53 14 121 20 150 9 48 11 52 38 52 19 0 30 -6 34 -17z
m-1040 -1253 c39 -43 52 -77 41 -110 -10 -32 -65 -90 -84 -90 -42 0 -119 109
-106 150 7 23 81 90 99 90 7 0 30 -18 50 -40z m903 -268 c46 -54 42 -109 -11
-142 -49 -30 -79 -26 -116 16 -40 46 -36 84 16 132 42 39 73 38 111 -6z
m-1319 -369 c6 -21 16 -69 22 -108 15 -97 45 -185 75 -218 49 -52 107 -71 280
-91 127 -15 149 -24 121 -55 -21 -23 -49 -29 -185 -41 -118 -11 -165 -32 -224
-101 -39 -45 -59 -107 -86 -265 -12 -74 -20 -100 -33 -102 -19 -4 -30 38 -53
196 -16 112 -34 164 -67 199 -34 36 -121 62 -255 77 -68 8 -127 16 -130 20
-10 10 7 54 23 60 9 4 58 11 108 16 138 14 188 32 245 90 56 56 65 78 85 210
16 109 30 150 49 150 8 0 19 -17 25 -37z m-925 -38 c42 -40 60 -72 53 -98 -6
-25 -88 -107 -106 -107 -6 0 -29 19 -50 42 -54 56 -54 92 -2 148 45 47 67 50
105 15z m-480 -629 c45 -41 46 -60 6 -109 -39 -48 -78 -50 -121 -7 -25 26 -29
36 -24 63 8 39 52 87 81 87 12 0 38 -15 58 -34z m774 -317 c18 -11 40 -34 48
-50 13 -25 13 -33 2 -62 -16 -37 -70 -87 -94 -87 -18 0 -82 64 -93 94 -9 27 4
65 36 99 30 32 55 34 101 6z"/>
<path d="M2405 8803 c-12 -142 -1 -286 30 -383 44 -136 164 -367 220 -420 l47
-45 -5 240 c-4 206 -8 251 -26 315 -35 120 -107 257 -171 323 -78 80 -87 77
-95 -30z"/>
<path d="M3710 7801 c-64 -21 -140 -51 -170 -66 -155 -78 -327 -241 -393 -371
-26 -52 -64 -181 -55 -189 18 -18 340 143 464 231 117 82 240 242 276 357 21
70 22 77 6 76 -7 0 -65 -17 -128 -38z"/>
<path d="M6773 6875 c-61 -29 -167 -85 -236 -124 -69 -40 -170 -89 -225 -111
-55 -21 -130 -54 -168 -73 -38 -19 -100 -47 -139 -62 -38 -15 -119 -51 -180
-80 -60 -29 -150 -67 -200 -84 -49 -18 -97 -38 -105 -46 -54 -49 -305 -137
-890 -313 -179 -54 -193 -58 -415 -107 -82 -18 -206 -51 -275 -73 -126 -40
-168 -51 -385 -98 -126 -27 -245 -61 -245 -70 0 -16 33 -65 49 -74 47 -25 101
-15 541 94 102 26 307 76 455 112 149 36 344 90 435 119 91 30 224 71 295 93
197 60 501 179 687 270 92 45 170 82 173 82 3 0 56 24 118 54 62 29 177 81
257 116 80 34 159 68 175 75 17 7 80 34 140 60 177 75 233 113 255 169 12 31
14 126 3 125 -5 0 -58 -24 -120 -54z"/>
<path d="M6840 6678 c-14 -6 -99 -45 -190 -88 -91 -43 -241 -114 -335 -158
-93 -45 -194 -90 -222 -101 -29 -11 -70 -32 -91 -45 -50 -31 -162 -79 -238
-101 -32 -9 -102 -37 -154 -62 -115 -54 -213 -94 -300 -121 -36 -11 -109 -39
-163 -61 -54 -22 -157 -57 -230 -76 -73 -20 -199 -58 -282 -84 -82 -27 -202
-61 -265 -76 -561 -133 -890 -232 -890 -268 0 -7 15 -27 33 -45 24 -23 42 -32
66 -32 33 0 187 38 362 90 53 16 149 40 215 54 165 37 265 63 359 95 44 16
132 40 195 55 228 54 391 106 905 291 224 80 226 81 234 91 23 33 131 87 256
129 44 15 105 40 135 55 30 15 91 40 135 55 44 16 94 38 110 50 52 38 186 102
285 135 52 18 100 37 107 44 6 6 15 50 19 99 7 96 4 100 -56 75z"/>
<path d="M6860 6451 c-8 -5 -62 -28 -120 -51 -138 -56 -219 -96 -250 -125 -32
-29 -70 -48 -151 -76 -35 -12 -113 -45 -174 -75 -60 -29 -155 -66 -210 -83
-55 -16 -137 -47 -182 -70 -91 -46 -216 -96 -266 -107 -18 -3 -82 -29 -144
-55 -62 -27 -149 -61 -195 -75 -46 -14 -171 -54 -278 -89 -107 -36 -253 -78
-325 -95 -71 -17 -182 -47 -245 -67 -63 -19 -200 -57 -305 -83 -204 -50 -352
-104 -369 -133 -9 -15 -5 -23 24 -48 34 -29 37 -30 115 -25 105 6 257 38 435
91 80 24 200 58 268 75 67 17 177 50 245 75 67 24 178 60 247 80 69 20 168 54
220 76 52 22 156 57 230 78 74 21 185 59 245 83 61 25 128 51 150 58 22 7 74
28 115 47 120 56 257 113 268 113 6 0 66 25 134 56 68 31 158 72 201 90 127
55 312 152 342 180 25 23 26 29 20 72 -13 94 -16 100 -45 83z"/>
<path d="M6745 6166 c-55 -24 -199 -92 -320 -151 -121 -58 -258 -122 -303
-141 -46 -19 -112 -50 -145 -68 -87 -47 -181 -81 -512 -187 -159 -51 -360
-118 -445 -149 -140 -52 -485 -157 -790 -240 -152 -42 -385 -124 -385 -136 0
-5 20 -27 43 -49 42 -37 47 -39 105 -37 129 5 268 34 469 96 79 24 182 54 230
65 48 11 140 39 205 61 65 23 163 56 218 74 55 18 163 58 240 89 77 30 176 65
220 77 98 27 292 94 360 126 27 13 100 43 160 68 61 24 146 61 190 81 44 21
130 59 190 85 184 79 367 173 402 206 30 28 33 37 33 87 0 58 -16 87 -48 87
-9 0 -62 -20 -117 -44z"/>
<path d="M6835 5930 c-141 -68 -451 -207 -565 -253 -74 -30 -162 -66 -195 -80
-164 -69 -409 -161 -575 -215 -200 -65 -496 -170 -625 -221 -44 -17 -154 -51
-245 -76 -91 -24 -214 -60 -275 -80 -108 -35 -285 -112 -285 -125 0 -3 15 -13
33 -22 17 -8 64 -32 104 -52 l72 -37 68 19 c37 11 154 53 258 94 201 79 270
102 640 218 381 119 506 161 585 195 41 18 147 58 235 88 174 60 291 105 575
221 268 110 275 117 265 255 -5 57 -12 91 -19 90 -6 0 -29 -9 -51 -19z"/>
<path d="M6800 5588 c-41 -16 -122 -50 -180 -76 -110 -48 -340 -136 -595 -227
-82 -29 -213 -78 -290 -108 -77 -30 -174 -65 -215 -77 -41 -12 -133 -42 -205
-66 -71 -25 -173 -56 -225 -69 -143 -36 -223 -65 -470 -165 -124 -50 -233 -94
-243 -98 -15 -6 -4 -17 60 -58 75 -49 141 -85 508 -276 98 -51 182 -102 199
-120 24 -26 31 -29 45 -19 66 48 189 94 366 136 280 66 558 140 655 173 297
104 403 152 478 218 80 70 148 199 176 334 34 166 50 531 24 529 -7 -1 -47
-14 -88 -31z m-1027 -629 c55 -25 66 -105 21 -158 -44 -53 -86 -38 -119 43
-20 48 -13 70 33 101 43 29 35 28 65 14z"/>
<path d="M2322 5859 c-44 -13 -112 -82 -112 -114 0 -37 19 -70 50 -88 37 -22
55 -21 106 3 75 37 90 106 37 178 -26 34 -30 35 -81 21z"/>
<path d="M10058 13898 c-57 -47 -65 -128 -17 -183 24 -27 39 -35 64 -35 44 0
89 38 110 94 15 40 15 46 1 74 -9 17 -26 38 -38 46 -27 19 -98 21 -120 4z"/>
<path d="M10443 13315 c-33 -33 -35 -39 -30 -81 6 -54 33 -95 71 -109 23 -8
31 -5 57 21 60 60 55 155 -10 188 -42 22 -48 21 -88 -19z"/>
<path d="M11415 13179 c-108 -45 -201 -138 -237 -237 -23 -62 -23 -189 -1
-258 32 -104 128 -199 231 -231 87 -27 243 -25 303 5 107 52 200 190 207 307
11 176 -75 327 -228 399 -86 40 -200 47 -275 15z m216 -185 c39 -20 87 -78 98
-121 24 -84 10 -147 -42 -201 -46 -48 -84 -65 -149 -66 -49 -1 -62 3 -94 30
-69 56 -97 99 -102 158 -3 37 1 64 13 89 26 54 83 116 118 126 38 12 122 4
158 -15z"/>
<path d="M12233 12930 c-30 -12 -50 -78 -34 -109 36 -67 151 -31 151 48 0 34
-10 48 -43 60 -33 13 -44 13 -74 1z"/>
<path d="M12153 12340 c-43 -26 -65 -63 -65 -108 1 -51 14 -81 52 -119 58 -59
144 -33 190 57 26 52 25 78 -5 123 -45 66 -112 84 -172 47z"/>
<path d="M11394 12282 c-15 -10 -40 -61 -48 -98 -14 -66 37 -136 99 -136 117
0 124 180 9 228 -38 16 -45 17 -60 6z"/>
<path d="M12158 11586 c-25 -19 -48 -42 -52 -51 -28 -73 35 -185 103 -185 32
0 94 60 108 105 19 59 -43 165 -96 165 -10 0 -38 -16 -63 -34z"/>
<path d="M12504 10810 c-12 -5 -38 -25 -58 -45 -26 -26 -36 -44 -36 -68 0 -42
31 -92 70 -112 27 -14 33 -14 59 -1 45 24 91 82 91 117 0 39 -25 82 -60 103
-31 18 -36 18 -66 6z"/>
<path d="M12581 10294 c-25 -31 -26 -55 -6 -93 23 -45 54 -52 85 -21 23 23 26
75 8 115 -16 35 -59 34 -87 -1z"/>
<path d="M11879 5581 c-53 -54 -25 -135 51 -147 32 -5 40 -2 73 35 45 50 46
73 8 112 -22 21 -39 29 -66 29 -27 0 -44 -8 -66 -29z"/>
<path d="M11795 4888 c-76 -42 -85 -90 -26 -149 21 -22 47 -39 58 -39 20 0 86
63 96 91 8 24 -23 78 -54 95 -33 17 -47 17 -74 2z"/>
<path d="M2312 4794 c-41 -32 -62 -73 -62 -119 0 -30 8 -44 40 -75 65 -62 102
-64 164 -9 62 54 67 119 13 177 -52 56 -105 65 -155 26z"/>
<path d="M3471 4454 c-14 -18 -21 -41 -21 -70 0 -59 7 -71 48 -85 33 -11 37
-10 58 15 13 14 29 45 36 67 17 60 -3 93 -59 97 -34 3 -44 -1 -62 -24z"/>
<path d="M3798 4254 c-54 -29 -75 -107 -38 -144 32 -32 83 -27 115 12 23 27
26 39 22 75 -8 71 -40 90 -99 57z"/>
<path d="M6386 2985 c-9 -21 -16 -40 -16 -44 0 -5 -91 -240 -142 -366 -19 -46
-96 -214 -187 -410 -21 -44 -60 -111 -87 -148 -92 -129 -94 -138 -21 -118 28
8 93 11 180 9 97 -2 137 0 137 8 0 6 -9 32 -20 57 -17 39 -19 52 -10 94 14 64
43 111 78 124 34 14 352 5 380 -10 24 -13 52 -90 52 -140 0 -20 -11 -58 -25
-85 -34 -68 -33 -81 5 -61 32 16 181 20 277 6 84 -12 88 -2 31 69 -36 46 -128
259 -188 435 -26 77 -77 212 -113 300 -36 88 -76 187 -89 219 -20 53 -27 61
-63 73 -22 8 -68 17 -102 20 l-62 6 -15 -38z m162 -438 c34 -73 62 -143 62
-156 l0 -24 -122 8 c-68 4 -126 9 -130 12 -5 2 -8 11 -8 20 0 16 122 272 130
272 3 0 33 -59 68 -132z"/>
<path d="M4355 2998 c-16 -4 -91 -7 -165 -6 -74 2 -264 2 -422 1 l-288 -3 0
-25 c0 -19 8 -28 35 -39 21 -9 40 -26 46 -43 15 -37 24 -622 11 -770 -8 -106
-11 -116 -46 -169 -21 -31 -36 -57 -34 -59 2 -2 39 1 82 6 92 12 779 17 816 7
l25 -7 0 141 c0 97 -4 143 -12 145 -6 2 -28 -11 -48 -28 -47 -42 -85 -47 -332
-48 l-192 -1 -6 43 c-3 23 -5 78 -3 121 l3 80 35 9 c47 12 300 4 326 -11 12
-6 24 -8 28 -5 8 8 8 263 -1 263 -3 0 -26 -11 -49 -25 -55 -33 -108 -39 -238
-30 l-106 7 0 118 0 118 65 7 c36 4 142 6 236 3 l172 -4 27 -32 c49 -59 57
-48 65 104 4 74 6 137 4 138 -2 2 -17 -1 -34 -6z"/>
<path d="M4784 3001 c-12 -12 0 -36 40 -75 57 -55 57 -53 59 -527 l2 -375 -42
-57 c-52 -68 -54 -80 -10 -72 17 3 208 7 422 8 l390 2 0 75 c0 41 4 105 8 143
8 63 7 67 -11 67 -11 0 -30 -8 -43 -19 -62 -48 -88 -54 -278 -63 -101 -5 -190
-7 -197 -4 -12 4 -14 75 -14 401 0 381 1 397 21 436 11 23 18 44 14 47 -3 3
-45 5 -93 4 -48 -1 -127 2 -175 6 -48 4 -90 6 -93 3z"/>
<path d="M7260 2994 c0 -3 22 -26 50 -51 27 -24 89 -97 136 -161 48 -64 123
-152 166 -196 43 -43 78 -82 78 -87 0 -20 -56 -97 -114 -159 -34 -36 -92 -108
-128 -160 -70 -99 -167 -205 -230 -250 -44 -32 -41 -42 10 -28 20 6 101 8 179
6 79 -2 143 0 143 4 0 4 -5 18 -11 32 -18 38 -5 67 77 176 55 73 81 100 97
100 27 0 153 -128 192 -194 l26 -45 -19 -38 -20 -38 172 0 c94 1 193 2 221 3
l50 2 -70 68 c-107 104 -171 181 -309 370 -112 156 -124 176 -114 195 6 12 45
71 87 130 83 120 151 188 254 254 37 23 67 47 67 52 0 4 -70 9 -155 9 l-155 1
0 -42 c0 -30 -9 -56 -29 -88 -29 -45 -127 -146 -135 -138 -2 2 -42 54 -90 114
-47 61 -90 115 -95 121 -11 14 -331 51 -331 38z"/>
<path d="M10385 2989 c-176 -4 -368 -5 -426 -2 -105 5 -106 5 -112 -18 -10
-35 -9 -37 15 -41 51 -7 53 -29 50 -475 -3 -440 -2 -430 -56 -511 -16 -23 -27
-44 -25 -46 2 -3 92 0 199 6 107 5 310 8 450 6 l255 -3 -3 60 c-2 33 4 93 12
134 9 41 13 77 11 80 -3 2 -22 -12 -43 -32 -50 -49 -99 -57 -354 -57 l-198 0
0 134 0 134 76 7 c103 10 209 -1 262 -26 24 -12 44 -20 46 -18 6 8 16 266 10
272 -3 3 -29 -4 -58 -15 -40 -17 -79 -22 -187 -26 l-136 -4 -6 62 c-4 35 -7
89 -7 121 l0 57 98 7 c53 4 158 5 232 2 l135 -5 26 -31 c26 -32 57 -41 64 -18
10 31 11 257 1 255 -6 -1 -155 -5 -331 -9z"/>
<path d="M2110 2949 c0 -34 3 -38 27 -41 56 -6 58 -23 61 -462 l3 -398 -50
-76 c-28 -42 -50 -77 -48 -78 1 -1 95 1 210 4 231 5 236 7 172 68 l-35 33 0
120 0 119 35 12 c51 17 126 16 135 -1 5 -8 38 -53 73 -101 86 -116 122 -175
138 -223 7 -22 14 -41 14 -42 3 -8 303 30 323 41 l27 14 -37 22 c-56 33 -227
245 -254 314 -3 8 11 23 39 39 102 60 150 157 151 302 1 77 -3 98 -26 147 -49
105 -151 185 -266 208 -26 5 -192 11 -369 13 l-323 3 0 -37z m662 -167 c53
-33 93 -117 84 -178 -17 -129 -59 -154 -261 -154 -77 0 -146 4 -154 9 -12 7
-13 38 -8 169 3 89 8 166 12 172 5 8 50 11 149 8 126 -3 145 -5 178 -26z"/>
<path d="M8461 2981 c-21 -13 -2 -38 99 -130 50 -46 122 -125 159 -175 38 -50
82 -104 100 -120 50 -47 44 -72 -66 -287 -99 -192 -153 -267 -238 -327 l-30
-21 157 -1 157 0 -15 35 c-19 47 -18 57 14 98 15 20 38 52 52 71 14 20 34 36
44 36 34 0 103 -67 135 -132 17 -33 31 -71 31 -84 0 -20 7 -23 83 -32 153 -20
196 -22 202 -11 7 10 -30 78 -161 304 -58 101 -124 239 -124 263 0 7 17 31 39
55 21 23 65 80 99 127 82 116 131 166 237 242 136 98 133 101 -77 93 -95 -4
-176 -9 -180 -12 -5 -2 -8 -15 -8 -28 0 -65 -137 -245 -187 -245 -31 0 -79 62
-133 173 -40 80 -50 94 -80 104 -40 14 -288 17 -309 4z"/>
<path d="M11146 2961 c4 -14 19 -37 36 -51 17 -15 33 -42 38 -65 12 -50 13
-750 1 -790 -5 -17 -25 -59 -44 -95 l-36 -65 252 3 c321 3 367 10 484 67 228
112 364 323 350 544 -8 143 -55 234 -170 329 -60 49 -134 86 -227 114 -66 20
-117 23 -517 31 l-173 4 6 -26z m604 -184 c40 -15 73 -38 122 -87 79 -79 105
-144 95 -239 -25 -233 -138 -330 -414 -357 -72 -7 -73 -6 -83 21 -7 18 -8 137
-3 355 l6 329 51 3 c88 5 169 -4 226 -25z"/>
<path d="M1581 2386 c-29 -31 -44 -87 -32 -119 11 -29 61 -67 89 -67 28 0 101
56 108 84 8 32 -27 99 -61 114 -41 19 -79 15 -104 -12z"/>
<path d="M12630 2378 c-30 -49 -27 -118 6 -157 34 -41 71 -41 109 -1 25 27 29
38 29 86 -1 71 -29 104 -86 104 -32 0 -41 -5 -58 -32z"/>
<path d="M12960 2383 c-25 -22 -33 -39 -37 -76 -5 -44 -3 -49 31 -82 42 -39
56 -42 92 -19 57 38 72 127 29 169 -13 14 -31 25 -39 25 -8 0 -21 3 -29 6 -9
3 -29 -7 -47 -23z"/>
<path d="M1302 2388 c-36 -10 -72 -57 -72 -96 0 -63 61 -113 113 -93 30 12 67
65 67 97 0 71 -44 109 -108 92z"/>
<path d="M13302 2394 c-19 -9 -42 -59 -42 -94 0 -33 35 -74 72 -86 24 -7 66
21 88 59 18 32 6 72 -30 98 -28 20 -68 31 -88 23z"/>
<path d="M997 2364 c-54 -53 -40 -138 26 -165 35 -15 68 -1 100 43 18 24 19
32 8 68 -24 81 -84 104 -134 54z"/>
<path d="M5376 1271 c3 -44 3 -100 0 -125 l-7 -46 -99 0 c-72 0 -102 4 -113
14 -9 9 -16 47 -20 106 -3 51 -8 94 -11 97 -2 3 -22 7 -43 9 -21 3 -45 6 -53
8 -14 3 -16 -34 -18 -300 l-3 -304 61 0 60 0 0 114 c0 63 3 117 8 120 16 9
217 17 230 8 10 -6 14 -40 15 -115 l2 -107 59 0 59 0 -6 58 c-4 31 -10 161
-13 288 l-7 232 -37 11 c-72 21 -72 21 -64 -68z"/>
<path d="M5923 1336 c-58 -19 -105 -49 -148 -97 -85 -94 -98 -193 -40 -304 46
-89 106 -159 159 -185 57 -27 148 -30 198 -6 61 29 154 121 184 182 23 48 26
63 22 128 -8 120 -63 193 -193 256 -74 35 -127 43 -182 26z m161 -155 c60 -33
86 -77 86 -144 0 -76 -57 -163 -119 -182 -33 -10 -103 12 -145 47 -54 44 -76
95 -76 172 0 59 3 69 30 100 17 19 41 37 53 39 45 10 123 -5 171 -32z"/>
<path d="M10590 1345 c-8 -2 -50 -9 -94 -16 -73 -11 -79 -14 -91 -43 -9 -21
-16 -113 -20 -272 -8 -252 -4 -284 33 -284 10 0 28 -9 39 -20 20 -18 22 -18
27 -2 11 38 26 138 26 174 0 58 28 50 117 -37 43 -42 101 -86 128 -100 61 -29
125 -42 125 -26 0 21 -28 66 -60 96 -38 35 -90 108 -90 126 0 6 41 54 91 106
102 108 104 114 46 189 -68 88 -173 130 -277 109z m130 -156 c31 -11 32 -14
27 -51 -6 -41 -37 -84 -72 -98 -12 -4 -47 -1 -82 7 -70 17 -79 29 -68 93 6 34
12 41 38 49 45 13 119 13 157 0z"/>
<path d="M2414 1324 c-16 -43 -98 -223 -145 -317 -45 -89 -109 -241 -109 -258
0 -4 34 -6 76 -5 l77 1 14 54 c7 30 18 60 24 67 13 16 218 7 236 -10 6 -6 18
-33 26 -60 l14 -50 79 0 c45 0 78 4 77 9 -1 6 -27 63 -57 128 -31 65 -72 157
-91 203 -63 152 -113 244 -134 244 -10 0 -32 3 -50 6 -24 5 -32 3 -37 -12z"/>
<path d="M4402 1319 c-109 -55 -183 -171 -190 -300 -4 -70 -2 -82 21 -122 85
-144 263 -212 378 -145 105 61 199 197 199 285 -1 89 -68 195 -166 260 -47 31
-64 37 -127 40 -60 4 -79 1 -115 -18z m156 -128 c45 -23 87 -66 101 -104 27
-72 -3 -160 -69 -205 -65 -44 -169 -18 -225 57 -15 20 -20 41 -20 91 0 78 27
130 83 160 47 25 83 25 130 1z"/>
<path d="M7364 1317 c4 -12 11 -98 16 -190 11 -186 22 -225 85 -303 41 -49
124 -94 175 -94 67 0 195 106 218 181 6 19 13 115 15 214 3 99 8 187 12 197 6
14 -3 16 -67 16 l-73 0 4 -170 c1 -93 0 -185 -4 -204 -12 -65 -97 -93 -172
-58 -60 29 -65 45 -71 233 -2 93 -8 174 -11 179 -3 5 -35 12 -70 15 -62 7 -63
7 -57 -16z"/>
<path d="M8116 1278 c9 -69 8 -415 -2 -490 l-6 -48 60 0 59 0 -4 183 c-5 161
-4 180 10 167 8 -8 63 -76 122 -150 144 -181 163 -200 197 -200 l28 0 2 265
c1 146 2 277 2 293 1 26 -1 27 -58 30 l-59 3 5 -172 c3 -126 1 -168 -6 -154
-18 31 -106 147 -163 213 -29 35 -59 73 -67 84 -13 18 -67 37 -109 38 -17 0
-18 -5 -11 -62z"/>
<path d="M9485 1332 c-3 -3 -5 -13 -5 -21 0 -27 -49 -170 -90 -259 l-37 -84
-31 66 c-17 36 -47 117 -68 181 l-37 115 -60 0 c-46 0 -58 -3 -54 -14 3 -8 24
-67 48 -132 70 -200 138 -376 154 -401 17 -26 61 -40 83 -27 8 5 63 124 121
264 59 140 113 266 120 278 7 13 11 25 9 27 -6 5 -148 12 -153 7z"/>
<path d="M3700 1313 c-89 -44 -176 -173 -187 -276 -7 -73 20 -130 99 -208 92
-91 180 -123 272 -100 49 12 154 71 182 102 18 20 18 21 -4 40 -42 33 -88 35
-151 5 l-56 -27 -58 21 c-126 47 -173 128 -131 228 45 108 123 130 258 72 49
-20 69 -18 95 13 17 21 -42 96 -99 125 -56 28 -167 30 -220 5z"/>
<path d="M6495 1029 c0 -296 0 -300 20 -293 11 4 103 9 205 11 l185 3 0 67 0
68 -135 -1 c-89 -1 -137 2 -142 10 -4 6 -8 100 -8 208 0 108 -3 203 -6 212 -5
12 -20 16 -63 16 l-56 0 0 -301z"/>
<path d="M8814 1041 l1 -289 51 -4 51 -3 7 110 c3 61 6 192 6 293 l0 182 -59
0 -59 0 2 -289z"/>
<path d="M9816 1318 c-3 -7 -7 -138 -10 -290 l-6 -278 143 0 c79 0 172 3 206
6 70 8 73 14 45 100 -9 27 -18 56 -20 64 -4 12 -9 10 -23 -9 -36 -47 -202 -38
-215 12 -3 12 -6 32 -6 45 0 23 1 23 123 21 l122 -1 5 55 5 55 -110 7 c-60 4
-118 11 -127 16 -19 10 -25 63 -9 74 6 3 45 8 89 12 90 7 149 -8 161 -39 5
-15 13 0 29 63 12 46 22 87 22 92 0 4 -95 7 -210 7 -160 0 -212 -3 -214 -12z"/>
<path d="M11193 1313 c-73 -41 -143 -130 -143 -182 0 -23 51 -85 84 -103 11
-7 47 -15 79 -19 92 -11 139 -69 107 -130 -15 -28 -61 -24 -127 11 -75 40
-122 40 -151 0 -12 -16 -22 -35 -22 -42 1 -30 183 -118 243 -118 50 1 113 34
166 89 52 54 77 107 67 146 -15 60 -93 114 -198 136 -84 18 -129 85 -74 110
19 9 46 7 124 -11 55 -13 107 -20 116 -17 39 15 5 95 -51 123 -54 26 -178 30
-220 7z"/>
<path d="M11715 1035 c0 -291 0 -296 20 -291 11 3 104 6 208 6 l187 0 0 68 0
67 -120 -4 c-66 -2 -132 0 -146 3 -23 6 -25 10 -22 59 l3 52 110 0 110 0 0 55
0 55 -55 -5 c-30 -2 -80 -5 -110 -5 l-55 0 -3 56 -3 56 47 7 c26 3 86 6 133 6
47 0 92 4 99 9 7 4 14 28 15 52 l2 44 -210 3 -210 2 0 -295z"/>
<path d="M2978 1213 c-2 -59 -3 -190 -3 -291 l0 -183 29 5 c16 3 104 6 197 6
l169 0 0 65 0 64 -132 3 -133 3 -5 215 -5 215 -57 3 -58 3 -2 -108z"/>
</g>
</svg>
